<svg xmlns="http://www.w3.org/2000/svg" xmlns:xlink="http://www.w3.org/1999/xlink" width="220" zoomAndPan="magnify" viewBox="0 0 165 30.000001" height="40" preserveAspectRatio="xMidYMid meet" version="1.0"><defs><filter x="0%" y="0%" width="100%" height="100%" id="ea0a095bca"><feColorMatrix values="0 0 0 0 1 0 0 0 0 1 0 0 0 0 1 0 0 0 1 0" color-interpolation-filters="sRGB"/></filter><g/><clipPath id="373ca45918"><path d="M 2.660156 1.210938 L 24 1.210938 L 24 24 L 2.660156 24 Z M 2.660156 1.210938 " clip-rule="nonzero"/></clipPath><mask id="3e5927139c"><g filter="url(#ea0a095bca)"><rect x="-16.5" width="198" fill="#000000" y="-3" height="36.000001" fill-opacity="0.7882"/></g></mask><clipPath id="28cb17114d"><path d="M 1 0.625 L 21.566406 0.625 L 21.566406 22.921875 L 1 22.921875 Z M 1 0.625 " clip-rule="nonzero"/></clipPath><clipPath id="1c277f6398"><rect x="0" width="22" y="0" height="23"/></clipPath><mask id="abeb3c3075"><g filter="url(#ea0a095bca)"><rect x="-16.5" width="198" fill="#000000" y="-3" height="36.000001" fill-opacity="0.7882"/></g></mask><clipPath id="47715b84c0"><path d="M 0.488281 1 L 9.777344 1 L 9.777344 9.8125 L 0.488281 9.8125 Z M 0.488281 1 " clip-rule="nonzero"/></clipPath><clipPath id="97014cc74e"><rect x="0" width="10" y="0" height="10"/></clipPath><clipPath id="f2215d0453"><path d="M 10 1.210938 L 29.515625 1.210938 L 29.515625 16 L 10 16 Z M 10 1.210938 " clip-rule="nonzero"/></clipPath><mask id="cf40dedc16"><g filter="url(#ea0a095bca)"><rect x="-16.5" width="198" fill="#000000" y="-3" height="36.000001" fill-opacity="0.7882"/></g></mask><clipPath id="65d8af9f16"><path d="M 0.324219 0.625 L 19 0.625 L 19 14.792969 L 0.324219 14.792969 Z M 0.324219 0.625 " clip-rule="nonzero"/></clipPath><clipPath id="d435104b66"><rect x="0" width="20" y="0" height="15"/></clipPath><mask id="9ddea61f2e"><g filter="url(#ea0a095bca)"><rect x="-16.5" width="198" fill="#000000" y="-3" height="36.000001" fill-opacity="0.7882"/></g></mask><clipPath id="210a084282"><path d="M 0.878906 1 L 8.777344 1 L 8.777344 6.792969 L 0.878906 6.792969 Z M 0.878906 1 " clip-rule="nonzero"/></clipPath><clipPath id="d33de8e17a"><rect x="0" width="9" y="0" height="7"/></clipPath><mask id="a29601b15d"><g filter="url(#ea0a095bca)"><rect x="-16.5" width="198" fill="#000000" y="-3" height="36.000001" fill-opacity="0.7882"/></g></mask><clipPath id="1da0895437"><path d="M 0.488281 1 L 9.777344 1 L 9.777344 9.8125 L 0.488281 9.8125 Z M 0.488281 1 " clip-rule="nonzero"/></clipPath><clipPath id="fb65331247"><rect x="0" width="10" y="0" height="10"/></clipPath><clipPath id="ea8c562c64"><path d="M 18 6 L 29.515625 6 L 29.515625 22 L 18 22 Z M 18 6 " clip-rule="nonzero"/></clipPath><mask id="6a544f1cf0"><g filter="url(#ea0a095bca)"><rect x="-16.5" width="198" fill="#000000" y="-3" height="36.000001" fill-opacity="0.7882"/></g></mask><clipPath id="7b89848973"><path d="M 0.6875 0.269531 L 11.140625 0.269531 L 11.140625 15.832031 L 0.6875 15.832031 Z M 0.6875 0.269531 " clip-rule="nonzero"/></clipPath><clipPath id="77e8502630"><rect x="0" width="12" y="0" height="16"/></clipPath><mask id="3e10369d65"><g filter="url(#ea0a095bca)"><rect x="-16.5" width="198" fill="#000000" y="-3" height="36.000001" fill-opacity="0.7882"/></g></mask><clipPath id="ea0a2b250f"><path d="M 0.398438 0.046875 L 11.777344 0.046875 L 11.777344 8.640625 L 0.398438 8.640625 Z M 0.398438 0.046875 " clip-rule="nonzero"/></clipPath><clipPath id="1674bbaa2b"><rect x="0" width="12" y="0" height="9"/></clipPath><mask id="e00f83f4af"><g filter="url(#ea0a095bca)"><rect x="-16.5" width="198" fill="#000000" y="-3" height="36.000001" fill-opacity="0.2392"/></g></mask><clipPath id="fc8b83bda5"><path d="M 0.546875 0.0976562 L 4.261719 0.0976562 L 4.261719 6.832031 L 0.546875 6.832031 Z M 0.546875 0.0976562 " clip-rule="nonzero"/></clipPath><clipPath id="ec5129c124"><rect x="0" width="5" y="0" height="7"/></clipPath><mask id="b1be7be0d6"><g filter="url(#ea0a095bca)"><rect x="-16.5" width="198" fill="#000000" y="-3" height="36.000001" fill-opacity="0.2392"/></g></mask><clipPath id="438aed3038"><path d="M 0.00390625 0.0976562 L 9.992188 0.0976562 L 9.992188 9.15625 L 0.00390625 9.15625 Z M 0.00390625 0.0976562 " clip-rule="nonzero"/></clipPath><clipPath id="a68b73f801"><rect x="0" width="10" y="0" height="10"/></clipPath><mask id="64ffa35734"><g filter="url(#ea0a095bca)"><rect x="-16.5" width="198" fill="#000000" y="-3" height="36.000001" fill-opacity="0.2392"/></g></mask><clipPath id="da444992d1"><path d="M 0.488281 1 L 9.777344 1 L 9.777344 6.328125 L 0.488281 6.328125 Z M 0.488281 1 " clip-rule="nonzero"/></clipPath><clipPath id="dbff29f35d"><rect x="0" width="10" y="0" height="7"/></clipPath><mask id="ee80f45965"><g filter="url(#ea0a095bca)"><rect x="-16.5" width="198" fill="#000000" y="-3" height="36.000001" fill-opacity="0.2392"/></g></mask><clipPath id="13c87c8e0b"><path d="M 0.273438 0.117188 L 6.777344 0.117188 L 6.777344 8 L 0.273438 8 Z M 0.273438 0.117188 " clip-rule="nonzero"/></clipPath><clipPath id="61ae6f23c5"><rect x="0" width="7" y="0" height="9"/></clipPath></defs><g clip-path="url(#373ca45918)"><g mask="url(#3e5927139c)"><g transform="matrix(1, 0, 0, 1, 2, 1)"><g clip-path="url(#1c277f6398)"><g clip-path="url(#28cb17114d)"><path fill="#d9d9d9" d="M 6.082031 13.578125 C 6.082031 9.125 9.691406 5.515625 14.140625 5.515625 C 17.285156 5.515625 20.003906 7.3125 21.335938 9.933594 C 21.355469 9.632812 21.367188 9.328125 21.367188 9.023438 C 21.367188 7.8125 21.210938 6.636719 20.917969 5.515625 L 17.488281 2.089844 C 15.613281 0.210938 12.566406 0.210938 10.6875 2.089844 L 2.539062 10.234375 C 0.660156 12.113281 0.660156 15.160156 2.539062 17.039062 L 8.347656 22.84375 C 10.113281 22.742188 11.792969 22.304688 13.320312 21.597656 C 9.253906 21.1875 6.082031 17.753906 6.082031 13.578125 Z M 6.082031 13.578125 " fill-opacity="1" fill-rule="nonzero"/></g></g></g></g></g><g mask="url(#abeb3c3075)"><g transform="matrix(1, 0, 0, 1, 11, 9)"><g clip-path="url(#97014cc74e)"><g clip-path="url(#47715b84c0)"><path fill="#d9d9d9" d="M 3.390625 8.265625 L 6.96875 8.265625 C 6.96875 8.722656 7.039062 9.160156 7.164062 9.578125 C 8.625 8.835938 9.625 7.324219 9.625 5.578125 C 9.625 3.101562 7.617188 1.097656 5.140625 1.097656 C 2.667969 1.097656 0.660156 3.101562 0.660156 5.578125 C 0.660156 7.484375 1.851562 9.113281 3.53125 9.757812 C 3.4375 9.277344 3.390625 8.777344 3.390625 8.265625 Z M 3.390625 8.265625 " fill-opacity="1" fill-rule="nonzero"/></g></g></g></g><g clip-path="url(#f2215d0453)"><g mask="url(#cf40dedc16)"><g transform="matrix(1, 0, 0, 1, 10, 1)"><g clip-path="url(#d435104b66)"><g clip-path="url(#65d8af9f16)"><path fill="#ffffff" d="M 6.140625 5.515625 C 10.59375 5.515625 14.203125 9.125 14.203125 13.578125 C 14.203125 13.960938 14.175781 14.335938 14.125 14.703125 C 15.902344 14.390625 17.542969 13.675781 18.945312 12.65625 C 18.761719 11.769531 18.324219 10.925781 17.636719 10.234375 L 9.488281 2.089844 C 7.613281 0.210938 4.566406 0.210938 2.6875 2.089844 L 0.476562 4.300781 C 0.570312 5.328125 0.800781 6.316406 1.144531 7.25 C 2.519531 6.164062 4.253906 5.515625 6.140625 5.515625 Z M 6.140625 5.515625 " fill-opacity="1" fill-rule="nonzero"/></g></g></g></g></g><g mask="url(#9ddea61f2e)"><g transform="matrix(1, 0, 0, 1, 12, 9)"><g clip-path="url(#d33de8e17a)"><g clip-path="url(#210a084282)"><path fill="#ffffff" d="M 4.140625 1.097656 C 2.886719 1.097656 1.753906 1.613281 0.9375 2.445312 C 2.757812 4.742188 5.421875 6.339844 8.464844 6.765625 C 8.566406 6.386719 8.625 5.988281 8.625 5.578125 C 8.625 3.101562 6.617188 1.097656 4.140625 1.097656 Z M 4.140625 1.097656 " fill-opacity="1" fill-rule="nonzero"/></g></g></g></g><g mask="url(#a29601b15d)"><g transform="matrix(1, 0, 0, 1, 11, 9)"><g clip-path="url(#fb65331247)"><g clip-path="url(#1da0895437)"><path fill="#ffffff" d="M 3.390625 8.265625 L 6.96875 8.265625 C 6.96875 8.722656 7.039062 9.160156 7.164062 9.578125 C 8.625 8.835938 9.625 7.324219 9.625 5.578125 C 9.625 3.101562 7.617188 1.097656 5.140625 1.097656 C 2.667969 1.097656 0.660156 3.101562 0.660156 5.578125 C 0.660156 7.484375 1.851562 9.113281 3.53125 9.757812 C 3.4375 9.277344 3.390625 8.777344 3.390625 8.265625 Z M 3.390625 8.265625 " fill-opacity="1" fill-rule="nonzero"/></g></g></g></g><g clip-path="url(#ea8c562c64)"><g mask="url(#6a544f1cf0)"><g transform="matrix(1, 0, 0, 1, 18, 6)"><g clip-path="url(#77e8502630)"><g clip-path="url(#7b89848973)"><path fill="#ffffff" d="M 9.636719 5.234375 L 4.738281 0.335938 C 4.722656 0.335938 4.710938 0.335938 4.699219 0.335938 C 3.316406 0.335938 1.984375 0.546875 0.734375 0.941406 C 3.914062 2.019531 6.203125 5.03125 6.203125 8.578125 C 6.203125 11.402344 4.753906 13.886719 2.554688 15.324219 C 3.128906 15.597656 3.773438 15.746094 4.453125 15.746094 C 5.128906 15.746094 5.773438 15.597656 6.347656 15.328125 L 9.636719 12.039062 C 11.515625 10.160156 11.515625 7.113281 9.636719 5.234375 Z M 9.636719 5.234375 " fill-opacity="1" fill-rule="nonzero"/></g></g></g></g></g><g mask="url(#3e10369d65)"><g transform="matrix(1, 0, 0, 1, 9, 19)"><g clip-path="url(#1674bbaa2b)"><g clip-path="url(#ea0a2b250f)"><path fill="#ffffff" d="M 11.570312 6.105469 C 9.945312 5.71875 8.515625 4.835938 7.441406 3.632812 C 7.339844 3.636719 7.242188 3.640625 7.140625 3.640625 C 4.394531 3.640625 1.964844 2.261719 0.511719 0.164062 C 0.507812 0.285156 0.503906 0.40625 0.503906 0.527344 C 0.503906 1.972656 0.738281 3.367188 1.167969 4.667969 L 3.6875 7.183594 C 5.566406 9.0625 8.609375 9.0625 10.488281 7.183594 Z M 11.570312 6.105469 " fill-opacity="1" fill-rule="nonzero"/></g></g></g></g><g mask="url(#e00f83f4af)"><g transform="matrix(1, 0, 0, 1, 20, 15)"><g clip-path="url(#ec5129c124)"><g clip-path="url(#fc8b83bda5)"><path fill="#4a4949" d="M 1.796875 6.699219 C 3.28125 5.238281 4.203125 3.203125 4.203125 0.953125 C 4.203125 0.71875 4.195312 0.492188 4.175781 0.265625 C 3.960938 2.800781 2.574219 5.003906 0.554688 6.328125 C 0.941406 6.507812 1.359375 6.636719 1.796875 6.699219 Z M 1.796875 6.699219 " fill-opacity="1" fill-rule="nonzero"/></g></g></g></g><g mask="url(#b1be7be0d6)"><g transform="matrix(1, 0, 0, 1, 8, 15)"><g clip-path="url(#a68b73f801)"><g clip-path="url(#438aed3038)"><path fill="#4a4949" d="M 8.441406 7.632812 C 8.339844 7.636719 8.242188 7.640625 8.140625 7.640625 C 3.921875 7.640625 0.460938 4.398438 0.109375 0.269531 C 0.0898438 0.496094 0.0820312 0.722656 0.0820312 0.953125 C 0.0820312 5.40625 3.691406 9.015625 8.140625 9.015625 C 8.707031 9.015625 9.261719 8.957031 9.792969 8.84375 C 9.296875 8.492188 8.84375 8.085938 8.441406 7.632812 Z M 8.441406 7.632812 " fill-opacity="1" fill-rule="nonzero"/></g></g></g></g><g mask="url(#64ffa35734)"><g transform="matrix(1, 0, 0, 1, 11, 9)"><g clip-path="url(#dbff29f35d)"><g clip-path="url(#da444992d1)"><path fill="#4a4949" d="M 5.140625 1.097656 C 2.667969 1.097656 0.660156 3.101562 0.660156 5.578125 C 0.660156 5.8125 0.679688 6.039062 0.714844 6.265625 C 1.042969 4.117188 2.902344 2.46875 5.140625 2.46875 C 7.382812 2.46875 9.242188 4.117188 9.570312 6.265625 C 9.605469 6.039062 9.625 5.8125 9.625 5.578125 C 9.625 3.101562 7.617188 1.097656 5.140625 1.097656 Z M 5.140625 1.097656 " fill-opacity="1" fill-rule="nonzero"/></g></g></g></g><g mask="url(#ee80f45965)"><g transform="matrix(1, 0, 0, 1, 14, 18)"><g clip-path="url(#61ae6f23c5)"><g clip-path="url(#13c87c8e0b)"><path fill="#4a4949" d="M 6.570312 7.105469 C 3.355469 6.335938 0.890625 3.644531 0.457031 0.316406 L 0.390625 0.316406 C 0.390625 3.824219 2.632812 6.808594 5.757812 7.917969 Z M 6.570312 7.105469 " fill-opacity="1" fill-rule="nonzero"/></g></g></g></g><g fill="#5c0ee2" fill-opacity="1"><g transform="translate(28.860839, 25.369393)"><g><path d="M 13.21875 0 L 12.53125 -1.984375 L 12.21875 -1.984375 C 11.757812 -1.253906 11.117188 -0.691406 10.296875 -0.296875 C 9.472656 0.0859375 8.507812 0.28125 7.40625 0.28125 C 5.65625 0.28125 4.289062 -0.222656 3.3125 -1.234375 C 2.34375 -2.253906 1.859375 -3.691406 1.859375 -5.546875 L 1.859375 -15.90625 L 7.359375 -15.90625 L 7.359375 -7.21875 C 7.359375 -6.175781 7.503906 -5.390625 7.796875 -4.859375 C 8.085938 -4.328125 8.570312 -4.0625 9.25 -4.0625 C 10.195312 -4.0625 10.867188 -4.429688 11.265625 -5.171875 C 11.671875 -5.921875 11.875 -7.175781 11.875 -8.9375 L 11.875 -15.90625 L 17.359375 -15.90625 L 17.359375 0 Z M 13.21875 0 "/></g></g></g><g fill="#5c0ee2" fill-opacity="1"><g transform="translate(46.998688, 25.369393)"><g><path d="M 7.40625 0 L 1.921875 0 L 1.921875 -15.90625 L 7.40625 -15.90625 Z M 1.78125 -19.859375 C 1.78125 -20.679688 2.007812 -21.296875 2.46875 -21.703125 C 2.925781 -22.109375 3.664062 -22.3125 4.6875 -22.3125 C 5.707031 -22.3125 6.453125 -22.101562 6.921875 -21.6875 C 7.390625 -21.28125 7.625 -20.671875 7.625 -19.859375 C 7.625 -18.253906 6.644531 -17.453125 4.6875 -17.453125 C 2.75 -17.453125 1.78125 -18.253906 1.78125 -19.859375 Z M 1.78125 -19.859375 "/></g></g></g><g fill="#5c0ee2" fill-opacity="1"><g transform="translate(55.226083, 25.369393)"><g><path d="M 13.859375 0 L 0.6875 0 L 0.6875 -3.125 L 7.265625 -11.703125 L 1.0625 -11.703125 L 1.0625 -15.90625 L 13.546875 -15.90625 L 13.546875 -12.515625 L 7.25 -4.203125 L 13.859375 -4.203125 Z M 13.859375 0 "/></g></g></g><g fill="#5c0ee2" fill-opacity="1"><g transform="translate(68.675416, 25.369393)"><g/></g></g><g fill="#ffffff" fill-opacity="1"><g transform="translate(75.017593, 25.369393)"><g><path d="M 11.15625 0 L 6.96875 -14.78125 L 6.84375 -14.78125 C 7.03125 -12.257812 7.125 -10.304688 7.125 -8.921875 L 7.125 0 L 2.21875 0 L 2.21875 -20.53125 L 9.609375 -20.53125 L 13.890625 -5.953125 L 14 -5.953125 L 18.1875 -20.53125 L 25.59375 -20.53125 L 25.59375 0 L 20.5 0 L 20.5 -9 C 20.5 -9.46875 20.503906 -9.984375 20.515625 -10.546875 C 20.523438 -11.117188 20.585938 -12.519531 20.703125 -14.75 L 20.578125 -14.75 L 16.4375 0 Z M 11.15625 0 "/></g></g></g><g fill="#5c0ee2" fill-opacity="1"><g transform="translate(101.679639, 25.369393)"><g><path d="M 12.265625 0 L 11.21875 -2.109375 L 11.109375 -2.109375 C 10.367188 -1.191406 9.613281 -0.5625 8.84375 -0.21875 C 8.070312 0.113281 7.082031 0.28125 5.875 0.28125 C 4.375 0.28125 3.191406 -0.164062 2.328125 -1.0625 C 1.460938 -1.96875 1.03125 -3.234375 1.03125 -4.859375 C 1.03125 -6.546875 1.617188 -7.804688 2.796875 -8.640625 C 3.984375 -9.472656 5.695312 -9.9375 7.9375 -10.03125 L 10.578125 -10.125 L 10.578125 -10.34375 C 10.578125 -11.65625 9.929688 -12.3125 8.640625 -12.3125 C 7.484375 -12.3125 6.007812 -11.914062 4.21875 -11.125 L 2.640625 -14.75 C 4.492188 -15.707031 6.832031 -16.1875 9.65625 -16.1875 C 11.695312 -16.1875 13.273438 -15.679688 14.390625 -14.671875 C 15.515625 -13.660156 16.078125 -12.25 16.078125 -10.4375 L 16.078125 0 Z M 8.203125 -3.59375 C 8.859375 -3.59375 9.421875 -3.800781 9.890625 -4.21875 C 10.367188 -4.644531 10.609375 -5.195312 10.609375 -5.875 L 10.609375 -7.109375 L 9.34375 -7.046875 C 7.539062 -6.984375 6.640625 -6.316406 6.640625 -5.046875 C 6.640625 -4.078125 7.160156 -3.59375 8.203125 -3.59375 Z M 8.203125 -3.59375 "/></g></g></g><g fill="#5c0ee2" fill-opacity="1"><g transform="translate(118.469891, 25.369393)"><g><path d="M 11.9375 0 L 11.9375 -8.671875 C 11.9375 -9.734375 11.78125 -10.53125 11.46875 -11.0625 C 11.164062 -11.601562 10.679688 -11.875 10.015625 -11.875 C 9.085938 -11.875 8.414062 -11.503906 8 -10.765625 C 7.59375 -10.023438 7.390625 -8.757812 7.390625 -6.96875 L 7.390625 0 L 1.890625 0 L 1.890625 -15.90625 L 6.03125 -15.90625 L 6.71875 -13.9375 L 7.046875 -13.9375 C 7.515625 -14.6875 8.160156 -15.25 8.984375 -15.625 C 9.816406 -16 10.769531 -16.1875 11.84375 -16.1875 C 13.601562 -16.1875 14.972656 -15.675781 15.953125 -14.65625 C 16.929688 -13.632812 17.421875 -12.195312 17.421875 -10.34375 L 17.421875 0 Z M 11.9375 0 "/></g></g></g><g fill="#5c0ee2" fill-opacity="1"><g transform="translate(136.60774, 25.369393)"><g><path d="M 7.40625 0 L 1.921875 0 L 1.921875 -15.90625 L 7.40625 -15.90625 Z M 1.78125 -19.859375 C 1.78125 -20.679688 2.007812 -21.296875 2.46875 -21.703125 C 2.925781 -22.109375 3.664062 -22.3125 4.6875 -22.3125 C 5.707031 -22.3125 6.453125 -22.101562 6.921875 -21.6875 C 7.390625 -21.28125 7.625 -20.671875 7.625 -19.859375 C 7.625 -18.253906 6.644531 -17.453125 4.6875 -17.453125 C 2.75 -17.453125 1.78125 -18.253906 1.78125 -19.859375 Z M 1.78125 -19.859375 "/></g></g></g><g fill="#5c0ee2" fill-opacity="1"><g transform="translate(144.835134, 25.369393)"><g><path d="M 12.265625 0 L 11.21875 -2.109375 L 11.109375 -2.109375 C 10.367188 -1.191406 9.613281 -0.5625 8.84375 -0.21875 C 8.070312 0.113281 7.082031 0.28125 5.875 0.28125 C 4.375 0.28125 3.191406 -0.164062 2.328125 -1.0625 C 1.460938 -1.96875 1.03125 -3.234375 1.03125 -4.859375 C 1.03125 -6.546875 1.617188 -7.804688 2.796875 -8.640625 C 3.984375 -9.472656 5.695312 -9.9375 7.9375 -10.03125 L 10.578125 -10.125 L 10.578125 -10.34375 C 10.578125 -11.65625 9.929688 -12.3125 8.640625 -12.3125 C 7.484375 -12.3125 6.007812 -11.914062 4.21875 -11.125 L 2.640625 -14.75 C 4.492188 -15.707031 6.832031 -16.1875 9.65625 -16.1875 C 11.695312 -16.1875 13.273438 -15.679688 14.390625 -14.671875 C 15.515625 -13.660156 16.078125 -12.25 16.078125 -10.4375 L 16.078125 0 Z M 8.203125 -3.59375 C 8.859375 -3.59375 9.421875 -3.800781 9.890625 -4.21875 C 10.367188 -4.644531 10.609375 -5.195312 10.609375 -5.875 L 10.609375 -7.109375 L 9.34375 -7.046875 C 7.539062 -6.984375 6.640625 -6.316406 6.640625 -5.046875 C 6.640625 -4.078125 7.160156 -3.59375 8.203125 -3.59375 Z M 8.203125 -3.59375 "/></g></g></g></svg>